<svg xmlns="http://www.w3.org/2000/svg" fill="currentColor" aria-label="A hand opening a coin" viewBox="-0.0 -0.5 308.0 308.0"><g transform="translate(0.000000,307.000000) scale(0.100000,-0.100000)"><path d="M1625 2919 c-33 -5 -85 -11 -115 -14 -30 -3 -75 -9 -100 -15 -25 -5
-70 -12 -100 -15 -66 -6 -259 -41 -315 -58 -22 -6 -52 -10 -66 -9 -88 9 -238
-44 -278 -99 -27 -37 -22 -46 18 -29 17 6 36 10 42 8 7 -2 -19 -17 -57 -33
-75 -30 -100 -54 -207 -190 -102 -129 -159 -215 -143 -215 8 0 18 5 21 10 3 6
11 10 18 10 14 0 -24 -29 -40 -30 -7 0 -23 -10 -36 -22 -29 -27 -127 -178
-127 -195 0 -25 20 -22 34 4 21 39 20 27 -5 -37 -18 -50 -20 -67 -13 -200 5
-80 9 -152 10 -160 0 -8 2 -34 3 -57 1 -41 21 -63 21 -25 0 10 6 27 14 37 10
14 9 -1 -5 -55 -22 -86 -26 -153 -10 -158 6 -2 9 -15 5 -30 -4 -19 -3 -23 4
-13 12 17 21 -33 12 -69 -13 -50 26 -90 57 -59 7 7 19 8 30 4 10 -5 20 -9 23
-10 3 -1 12 -5 21 -9 9 -4 44 2 77 13 34 12 70 21 81 21 31 0 131 40 151 60
28 28 165 9 307 -41 l113 -40 190 10 c206 10 226 15 254 69 20 40 29 107 21
168 -5 44 -11 57 -28 63 -12 5 -33 20 -46 35 -25 27 -103 56 -241 91 -72 17
-102 20 -185 14 -55 -4 -113 -10 -130 -13 -22 -4 -17 0 19 17 l49 24 -114 58
c-97 51 -131 62 -229 81 l-115 21 65 7 c36 3 84 7 107 9 l43 2 -36 38 c-50 52
-33 46 36 -13 32 -29 81 -59 111 -70 30 -11 55 -20 57 -20 1 0 0 10 -2 23 -3
12 -7 45 -10 72 -5 49 -48 174 -64 184 -4 3 -21 24 -37 46 -16 22 -47 60 -69
84 -38 41 -38 43 -11 26 17 -10 53 -38 81 -62 28 -23 55 -43 59 -43 9 0 -2 91
-20 161 -8 29 -12 55 -10 57 11 12 85 -178 85 -220 0 -32 14 -19 59 55 25 40
62 98 83 130 21 32 38 61 38 64 0 5 -25 0 -67 -13 -10 -3 -6 2 10 11 25 14 26
17 13 38 -15 22 -48 127 -41 127 2 0 21 -25 41 -56 20 -31 43 -58 50 -61 34
-13 284 91 284 117 0 5 -8 13 -17 19 -10 5 -15 13 -10 17 4 4 15 0 25 -9 22
-20 32 -21 65 -4 19 10 23 17 16 28 -11 18 -12 159 0 159 4 0 14 -21 21 -47
20 -82 41 -123 62 -123 13 0 17 4 12 13 -4 6 4 2 17 -9 34 -30 62 -43 113 -53
33 -6 46 -5 50 4 5 14 56 27 56 14 0 -5 -9 -9 -20 -9 -26 0 -26 -16 0 -23 15
-4 24 4 40 38 36 73 46 73 42 0 -4 -61 -2 -67 32 -114 51 -69 91 -101 129
-102 25 0 20 -3 -23 -13 -103 -23 -262 -116 -376 -219 -71 -65 -179 -203 -205
-263 -25 -56 -35 -129 -21 -157 6 -12 12 -31 14 -41 2 -13 18 -24 45 -33 39
-13 95 -63 105 -95 11 -31 275 70 415 159 29 18 56 33 61 33 11 0 156 96 230
153 76 59 169 162 183 204 9 28 6 41 -25 107 -19 41 -46 87 -59 100 l-25 25
18 39 19 39 -77 138 c-56 102 -84 143 -106 154 -16 9 -50 34 -75 57 -39 34
-230 144 -252 144 -4 0 -33 16 -65 35 -61 37 -64 37 -159 24z m-706 -133 c-2
-2 -15 -9 -29 -15 -24 -11 -24 -11 -6 3 16 13 49 24 35 12z m896 -8 c25 -11
34 -28 15 -28 -5 0 -24 9 -42 20 -36 22 -17 28 27 8z m215 -133 c20 -24 6 -28
-15 -5 -10 11 -13 20 -8 20 6 0 16 -7 23 -15z m116 -83 c-9 -27 64 -145 96
-156 42 -15 45 1 7 40 l-34 36 32 -16 c17 -9 34 -25 38 -36 3 -11 16 -25 27
-31 29 -16 6 -29 -53 -29 -38 0 -50 5 -76 33 -53 56 -89 148 -66 170 14 15 34
7 29 -11z m-1710 -287 c-29 -42 -93 -115 -102 -115 -8 0 34 58 80 111 48 55
57 57 22 4z m1822 9 c12 -4 22 -13 22 -21 0 -28 42 -94 65 -103 41 -15 28 -23
-27 -17 -134 14 -390 -87 -544 -215 -26 -21 -50 -38 -54 -38 -18 0 -172 -187
-200 -243 -24 -49 -30 -55 -30 -33 0 15 7 41 16 57 15 30 14 33 -19 88 -31 53
-37 81 -16 81 5 0 9 -6 9 -13 0 -7 12 -30 27 -51 l26 -39 18 22 c18 22 17 23
-12 71 -23 37 -34 47 -47 43 -20 -8 39 68 112 145 109 114 263 207 421 253 59
17 189 24 233 13z m-1886 -226 c-7 -7 -12 -8 -12 -2 0 14 12 26 19 19 2 -3 -1
-11 -7 -17z m1942 12 c33 -12 33 -24 0 -67 -29 -38 -45 -38 -20 0 13 19 14 26
4 34 -26 20 -52 23 -110 13 -81 -15 -85 -6 -6 13 79 18 100 20 132 7z m-1990
-95 c-4 -8 -11 -15 -16 -15 -6 0 -5 6 2 15 7 8 14 15 16 15 2 0 1 -7 -2 -15z
m1878 -84 c-99 -90 -275 -197 -427 -261 -128 -53 -143 -51 -29 4 59 28 98 54
112 74 12 16 22 33 22 37 0 11 82 106 87 101 3 -2 -9 -25 -27 -50 -50 -73 -10
-58 83 32 44 42 71 64 59 47 -12 -16 -32 -42 -43 -57 -11 -16 -17 -28 -12 -28
4 0 53 31 108 69 55 38 102 69 105 70 3 0 -14 -17 -38 -38z m-457 -81 c-3 -5
-12 -10 -18 -10 -7 0 -6 4 3 10 19 12 23 12 15 0z m-65 -65 c-7 -9 -15 -13
-17 -11 -7 7 7 26 19 26 6 0 6 -6 -2 -15z m-193 -92 c-6 -5 -47 69 -47 84 0 4
12 -11 26 -35 14 -24 24 -46 21 -49z m-1257 -27 c0 -3 -4 -8 -10 -11 -5 -3
-10 -1 -10 4 0 6 5 11 10 11 6 0 10 -2 10 -4z m950 -174 c-4 -24 -13 -49 -20
-55 -9 -9 -10 -4 -5 23 3 19 7 49 8 67 2 25 5 29 14 20 8 -8 9 -26 3 -55z
m-234 26 c-8 -18 -17 -54 -20 -81 -8 -49 -27 -58 -22 -9 2 15 4 34 5 42 1 16
38 80 45 80 3 0 -1 -15 -8 -32z m475 10 c45 -11 54 -17 66 -47 10 -23 13 -49
8 -78 -10 -67 -20 -58 -17 14 2 36 0 69 -6 75 -10 10 -158 16 -167 6 -4 -4
-14 -41 -22 -83 -14 -71 -14 -77 2 -89 15 -10 12 -12 -19 -8 -42 5 -43 8 -21
132 8 47 15 86 15 88 0 7 116 0 161 -10z m-345 -56 c-11 -10 -14 3 -8 33 l7
30 3 -28 c2 -16 1 -31 -2 -35z m-436 -12 c0 -5 -10 -10 -22 -9 -22 0 -22 1 -3
9 11 5 21 9 23 9 1 1 2 -3 2 -9z M2120 2261 c0 -6 5 -13 10 -16 6 -4 19 -23
30 -44 16 -32 23 -38 45 -34 14 3 25 8 25 11 0 3 -12 24 -27 48 -22 35 -34 44
-55 44 -16 0 -28 -4 -28 -9z M2200 2264 c0 -3 8 -18 18 -32 10 -15 22 -35 25
-44 4 -11 17 -18 32 -18 31 0 31 1 -1 56 -19 33 -32 44 -50 44 -13 0 -24 -3
-24 -6z M2053 2254 c-17 -7 48 -105 65 -99 8 3 20 5 28 5 12 0 8 12 -13 50
-27 49 -45 58 -80 44z M1990 2239 c-34 -14 -34 -12 2 -63 28 -40 36 -46 58
-41 14 4 26 8 28 10 2 2 -59 106 -62 104 -1 0 -12 -5 -26 -10z M1893 2200
c-13 -5 -23 -12 -23 -16 0 -7 62 -94 67 -94 12 0 43 22 43 31 0 12 -51 89 -59
88 -3 0 -16 -4 -28 -9z M1800 2145 c-10 -12 -8 -22 14 -55 46 -70 84 -47 41
25 -28 49 -36 53 -55 30z M1710 2085 c-9 -11 -5 -23 20 -60 28 -41 34 -45 46
-33 13 12 11 21 -12 61 -28 51 -35 55 -54 32z M1617 2012 c-16 -17 -15 -21 13
-65 26 -42 32 -46 49 -36 18 12 17 14 -11 63 -17 28 -31 52 -32 54 -2 1 -10
-6 -19 -16z M1541 1926 c-9 -10 -5 -24 15 -60 29 -51 34 -54 50 -28 9 14 7 26
-13 60 -27 45 -34 49 -52 28z M1395 2464 c-50 -24 -130 -59 -179 -77 l-88 -33
-95 -145 c-86 -130 -94 -147 -89 -179 4 -19 9 -86 13 -148 4 -70 11 -116 19
-123 9 -7 26 11 68 73 31 46 81 111 110 145 32 36 62 83 73 112 17 48 20 51
72 68 58 18 133 72 177 126 26 34 28 34 93 30 40 -3 87 2 121 11 53 14 56 14
95 -8 32 -19 46 -21 73 -14 37 10 37 9 -27 88 l-44 55 -71 7 c-39 4 -104 18
-145 33 -41 14 -77 25 -80 24 -3 0 -47 -21 -96 -45z M2631 2332 c-21 -40 -42
-145 -31 -156 8 -8 16 -4 30 14 37 48 62 110 56 136 -8 29 -41 33 -55 6z
M2743 2014 c-57 -47 -103 -91 -103 -98 0 -35 24 -25 172 70 61 39 66 45 65 76
-1 20 -8 34 -17 35 -8 2 -61 -35 -117 -83z M2777 1770 c-141 -27 -141 -47 -2
-57 92 -6 115 2 115 42 0 32 -13 34 -113 15z M2336 1664 c-35 -35 0 -88 43
-65 15 9 31 32 31 46 0 9 -33 35 -45 35 -7 0 -21 -7 -29 -16z M1930 1513
c-124 -9 -241 -28 -287 -49 -29 -13 -53 -27 -54 -31 -7 -110 -26 -183 -48
-190 -49 -14 -87 -44 -153 -122 -40 -47 -107 -122 -148 -166 -42 -44 -86 -98
-100 -120 -13 -22 -35 -53 -49 -69 -31 -33 -152 -117 -219 -151 -69 -35 -185
-154 -207 -212 -6 -16 -23 -52 -38 -82 -14 -29 -24 -58 -21 -63 6 -9 68 -5 97
7 13 6 16 3 11 -9 -5 -12 0 -16 22 -16 15 0 35 -7 45 -15 12 -12 41 -16 110
-17 57 -1 105 -6 121 -15 17 -8 64 -13 130 -13 l103 0 128 136 c70 74 127 141
127 148 0 6 24 32 54 56 85 71 147 176 211 359 32 92 11 196 -51 252 -27 24
-64 44 -64 34 0 -2 13 -26 30 -51 16 -26 28 -50 25 -52 -2 -2 -23 12 -46 32
-23 19 -58 41 -78 47 -69 22 -59 36 22 30 15 -1 27 2 27 8 0 10 -58 30 -90 32
-8 0 3 7 25 15 33 13 49 13 94 4 72 -16 157 -96 167 -158 l6 -39 112 -37 c157
-51 241 -67 401 -73 109 -4 155 -2 209 11 98 23 164 61 182 105 24 57 53 212
44 235 -11 30 -49 63 -95 82 -22 9 -51 24 -65 34 -30 20 -150 65 -200 74 -233
43 -372 57 -490 49z m578 -140 c98 -36 162 -69 162 -84 0 -27 -109 -51 -230
-50 -105 2 -302 32 -395 61 -78 25 -43 25 65 0 47 -11 103 -19 125 -19 l40 0
-40 19 c-22 11 -64 29 -93 41 -29 12 -51 24 -48 26 7 7 97 -23 171 -57 90 -41
119 -50 136 -39 13 8 -2 17 -71 42 -13 5 -13 6 1 6 9 1 42 -8 74 -19 32 -11
64 -20 72 -20 24 0 13 17 -19 30 -68 25 -83 33 -71 37 7 3 34 -2 60 -11 27 -8
65 -18 87 -22 110 -19 -60 67 -186 95 -32 7 -60 16 -63 21 -8 14 124 -20 223
-57z m-658 43 c0 -2 -7 -7 -16 -10 -8 -3 -12 -2 -9 4 6 10 25 14 25 6z m-4
-114 c327 -99 419 -115 644 -116 116 0 185 4 204 12 16 7 32 10 35 6 3 -4 0
-9 -6 -11 -7 -3 -13 -13 -13 -23 0 -30 -23 -120 -30 -120 -4 0 -2 27 5 60 7
33 9 62 5 65 -18 11 -41 -25 -51 -80 -6 -33 -15 -64 -21 -70 -7 -7 -9 1 -4 25
20 106 20 114 2 107 -10 -4 -23 -7 -30 -7 -16 0 -37 -132 -23 -142 40 -26
-250 -29 -392 -4 -91 17 -251 62 -251 72 0 2 11 2 24 -2 22 -5 24 -2 31 48 3
29 9 60 11 69 3 12 -5 20 -27 28 -18 6 -33 11 -35 11 -1 0 -6 -20 -10 -45 -3
-25 -11 -48 -17 -52 -10 -6 -4 57 8 90 4 9 -5 18 -27 27 -101 38 -179 77 -213
105 l-30 25 71 -29 c39 -16 102 -38 140 -49z m459 63 l30 -15 -35 6 c-19 4
-42 10 -50 15 -27 15 22 10 55 -6z m-845 -308 c-33 -53 -60 -100 -60 -105 0
-5 11 -14 25 -20 14 -7 51 -30 81 -53 55 -40 56 -41 70 -20 8 11 20 26 27 33
8 7 34 42 60 77 50 67 61 67 26 -1 -28 -54 -127 -158 -151 -158 -10 0 -58 25
-107 56 l-90 57 26 41 c55 90 78 123 112 158 19 21 36 36 38 34 2 -2 -23 -47
-57 -99z m-170 -295 c24 -9 59 -42 75 -70 6 -11 3 -12 -13 -3 -11 6 -26 17
-34 24 -7 7 -34 23 -60 36 -79 38 -54 48 32 13z m-300 -221 c0 -5 -16 -18 -35
-30 -44 -26 -46 -10 -2 17 39 25 37 24 37 13z m70 -125 c0 -3 -4 -8 -10 -11
-5 -3 -10 -1 -10 4 0 6 5 11 10 11 6 0 10 -2 10 -4z M2014 1173 c-3 -16 -10
-45 -16 -67 -11 -44 -2 -59 33 -54 20 3 25 12 34 66 12 63 12 64 -12 73 -33
12 -32 13 -39 -18z M2115 1148 c-26 -117 -26 -118 10 -118 18 0 24 7 28 38 4
20 9 52 13 70 6 30 5 32 -20 32 -18 0 -27 -6 -31 -22z M2226 1138 c-3 -7 -7
-27 -10 -44 -3 -18 -8 -43 -12 -58 -6 -24 -4 -26 24 -26 28 0 30 3 37 48 3 26
9 57 12 70 4 19 1 22 -21 22 -15 0 -28 -6 -30 -12z M2325 1128 c-10 -33 -23
-113 -19 -120 3 -4 16 -8 29 -8 25 0 26 4 40 98 7 40 6 42 -19 42 -15 0 -28
-6 -31 -12z M2401 1077 c-6 -35 -11 -67 -11 -70 0 -4 13 -7 29 -7 25 0 29 4
34 38 4 20 9 52 13 70 6 30 5 32 -24 32 -29 0 -30 -2 -41 -63z M2486 1078 c-4
-35 -8 -65 -9 -68 -1 -3 10 -6 25 -8 29 -3 27 -8 46 91 l10 47 -33 0 c-32 0
-32 0 -39 -62z M2783 1126 c7 -18 -17 -111 -37 -141 -27 -40 -101 -76 -199
-96 -51 -10 -103 -18 -117 -19 -21 0 -31 -10 -54 -57 -22 -45 -96 -245 -96
-260 0 -2 9 -3 20 -3 12 0 44 25 78 60 31 34 66 62 77 64 11 2 34 7 50 11 26
6 24 3 -17 -23 -40 -27 -108 -102 -108 -121 0 -3 18 -16 40 -29 22 -12 47 -36
55 -53 l16 -30 -63 34 c-93 49 -132 48 -259 -8 -57 -25 -126 -63 -155 -85 -39
-29 -76 -45 -148 -64 -53 -14 -106 -26 -118 -25 -37 1 121 71 161 72 29 0 48
12 96 54 33 30 92 69 131 88 77 38 97 65 108 150 3 22 12 72 22 110 30 129 30
125 -4 125 -27 0 -176 25 -213 36 -11 3 -26 -11 -46 -45 -35 -56 -75 -156 -66
-165 4 -3 -13 -23 -37 -43 -44 -38 -110 -131 -110 -156 0 -8 7 -18 16 -21 9
-4 15 -9 12 -11 -3 -3 -25 4 -49 15 -24 11 -65 20 -91 20 -46 0 -48 -2 -114
-74 -63 -70 -68 -80 -89 -161 -12 -47 -19 -88 -15 -90 3 -2 49 0 101 4 52 5
227 9 389 11 424 2 595 13 621 36 24 21 69 106 69 128 0 8 4 16 9 18 12 4 103
209 96 216 -3 3 1 12 9 21 14 16 106 283 106 308 0 7 6 13 14 13 25 0 28 18
21 100 -7 76 -8 79 -37 89 -45 16 -81 14 -75 -3z m-131 -538 c-7 -7 -12 -8
-12 -2 0 14 12 26 19 19 2 -3 -1 -11 -7 -17z m-711 -5 c-18 -31 -41 -57 -45
-52 -3 3 6 19 20 37 27 35 41 43 25 15z M520 857 c0 -19 3 -37 6 -40 11 -11
43 12 59 43 l16 30 -41 0 c-39 0 -40 -1 -40 -33z M1360 245 l-55 -56 44 3 c41
3 44 5 58 46 8 24 13 48 11 53 -2 5 -28 -16 -58 -46z"/></g></svg>