<svg xmlns="http://www.w3.org/2000/svg" fill="currentColor" aria-label="hand releasing leaf" viewBox="0 0 184 170"><path d="M79.5 10.9c-14.3 5-23.5 9.3-25 11.4-2.4 3.4-1.9 7.6 1.4 10.6 2.5 2.4 2.7 2.8 1.4 4.7-3 4.6 3.7 11.8 10.5 11.1 2.7-.2 3.2 0 3.2 1.8 0 2.6 2.5 5.1 6.1 6 1.9.5 4.7-.5 11.2-3.9 7.2-3.8 9.6-4.6 13.9-4.5 8.8.1 11.9 1.7 14.2 7.2 2.5 6.1 1.7 7.1-8.2 9.2Q94.5 67.3 91 73.3c-2.7 4.4-2.5 7.1.8 10.8 2.7 3 3.1 3.1 9.2 2.8 16.9-.8 19-.5 28 3.6 8.3 3.9 8.7 4 18 3.6 11.4-.4 22.6-.4 26 .1 4.2.5 3-2.5-1.5-4-2.9-1-6.2-1.2-12-.6-15.9 1.5-20.2 1.1-29.8-3-10.3-4.3-16-5.2-23.9-3.7-11.5 2.1-16.5-3.4-9.1-10.2a31 31 0 0 1 8.9-3.3c9.2-2.1 13-3.8 14.9-6.8 1.6-2.4 1.6-2.9 0-7.6a49 49 0 0 0-18.8-20.8C91.8 28 90 27.7 72.3 30.6c-9.6 1.6-10.4 1.6-12.8 0-6.1-4 .2-8.9 20.2-15.6 14.1-4.6 14.2-4.6 43.2 8.3 15 6.7 16.1 7.4 25.1 18 7.6 9 13.6 13.1 20.8 14.3 4.7.7 8.1-.1 6.6-1.6-.6-.6-3.7-1.7-6.9-2.5-7.3-2-10.8-4.5-19-14.3-7.8-9.3-10.3-11-24.7-17.4C93.8 6.2 93.2 6 79.5 10.9m17.3 24.8a77 77 0 0 1 9.3 6.3l3.1 2.5h-7.4c-6.7 0-7.9.3-13.6 3.7-7.8 4.7-10.1 5.3-12.7 3.4-2-1.4-2-1.5.3-3.8 1.2-1.4 4.9-3.7 8.2-5.3s6-3.5 6-4.2c0-2.1-2.2-1.6-10.3 2.3C69.7 45.3 65 46 62 43c-1.9-1.9-2-2.4-.7-4.3 1.5-2.2 2.8-2.6 18.2-5.2 11.1-1.8 10.4-1.9 17.3 2.2M8.6 78.9c-.3.5.3 1.9 1.3 3.2a63 63 0 0 1 9.1 21.7 77 77 0 0 0 9.5 24.7 43 43 0 0 0 18.4 15.8 28 28 0 0 0 15.6 3.2c5 0 10.6-.3 12.6-.8l3.6-.7 2.7 5.9a42 42 0 0 1 2.6 6.9c0 .5.6 1.5 1.4 2.1q1.3 1.3 2.5-.2c.8-1.1.1-3.3-2.9-9.6-4-8.3-4-8.3-2.5-12.7.8-2.5 1.5-7.3 1.5-10.8 0-23.2-18.3-41.9-46.5-47.7-9.3-1.9-28-2.6-28.9-1m26.9 4.6c19.5 3.8 34.1 13.8 41.2 28.2 2.9 6.1 4.2 18 2.6 24.1l-.8 3.3-4.7-6.3c-4.4-6-4.6-6.8-5.4-15.2-1.1-11.4-3.3-13-2.6-1.9l.5 7.8-6.4-6.9c-5.8-6.2-6.5-7.5-7.4-12.9-.5-3.3-1.6-6.2-2.3-6.5q-1.3-.5-.8 2l1 5.6.6 3.3-6.7-5.5a27 27 0 0 0-7.8-5.3c-1.6.6-.6 1.8 5.8 7.5l5.9 5.3-6.3-.3c-8.9-.4-9.2 1.5-.4 2.5 9.4 1 11.8 2.1 17.1 8.1l4.4 5.1-9 .3c-4.9.1-9 .6-9 1.1 0 .4 4.2 1.1 9.4 1.4s10.3 1 11.3 1.6c2.3 1.2 10.7 12 10 12.8-.3.2-4.1.7-8.4 1a37 37 0 0 1-33.4-14.2c-5-6.7-7.1-11.6-10.9-25.5a138 138 0 0 0-8-22.6c0-.7 13 .6 20.5 2.1m69.5 19.1-1 3.1c0 .3-1.1 2.1-2.5 3.9q-4.2 5.4-1.2 5.4c2.8 0 7.7-8 7.7-12.5 0-3.2-1.8-3.2-3 .1m10 5.4c-.7 2.7-2.5 6.8-4.1 8.9-3.8 5.3-1.8 6.7 2.7 1.9 4.6-5.1 7.3-15.8 4-15.8q-1.5.2-2.6 5"/></svg>