<svg xmlns="http://www.w3.org/2000/svg" fill="currentColor" aria-label="slime mascot looking empty" viewBox="0 0 226 176"><path d="M75 10.8a43 43 0 0 0-24.8 21.9 54 54 0 0 0-6.2 23 52 52 0 0 1-10.3 27.6A53 53 0 0 0 22 118.2c-.7 11.6-1 13.1-3.6 17.3l-5.1 8.3c-4 6.6-2.5 12.4 4 15.9 2.4 1.3 6.1 1.7 15.2 1.9 10.4.1 13 .5 19 2.9a41 41 0 0 0 29.6 1A43 43 0 0 1 99 163c20.2.9 26.3.5 30.8-1.9 5.7-2.9 7.9-7.6 5.8-12.4-.8-1.7-2.6-4.7-4-6.6a22 22 0 0 1-2.6-4.1c0-.4 4.8.4 10.8 1.6 18 3.8 47.1 8.5 50.5 8.2l3.1-.3 2.8-12c9.1-40.2 20.2-100.2 18.9-102.4-.3-.5-13.4-2.1-29.1-3.5l-32.7-3.2c-5-.7-4.1-3.1-8.3 22.6-2.8 17-4.3 26-5.6 31.7-.2 1.3-1.1 2.3-1.9 2.3s-3.3 1-5.6 2.2c-3.9 2-4.5 2-8.2.7-6.4-2.3-6.7-3.7-2-11.1 6.3-9.7 7.7-17.3 4.7-25.3-.9-2.2-2.3-7.2-3.3-11-3.3-13.3-9.6-21.5-20-26.3-7.5-3.4-20-4.1-28.1-1.4m27.3 4c8 3.5 14.1 10.4 16.7 18.9 1.1 3.6 2 7.1 2 7.8s.9 3.2 2 5.6c2.3 5.2 2.6 14.5.6 19.3-.8 1.8-3 5.7-5 8.6s-3.6 5.6-3.6 6.1 1.3 2.3 2.8 4c3.7 4.1 9.8 4.9 16.1 2.1 3.5-1.6 4.9-1.8 6.8-.9 3.4 1.5 2.7 4.9-1.3 5.9-2.7.7-3.1 1.2-3.2 4.3-.1 2-.4 4-.6 4.4-1 1.6-9.5 3.3-13 2.7-3-.6-3.7-1.3-5.2-5.1-3-8-3.3-3.7-.3 5.2a78 78 0 0 1 3.5 17.3 34 34 0 0 0 8.3 22c2.3 3 4.4 6.5 4.7 7.7q1.2 5-6.4 8.5c-4.2 1.9-5.8 2-20.6 1.4-15.4-.7-16.4-.6-24.1 1.8a42 42 0 0 1-29 0 55 55 0 0 0-20.2-3.3c-15.5-.8-18.6-2.1-19.1-8.4-.3-2.9.5-4.9 4.2-10.2 5-7.3 5.3-8.5 6-22.6a60 60 0 0 1 11.5-33.3 49 49 0 0 0 10.6-27.9c.8-6.2 2.4-14 3.5-17.3 7.8-22.8 31.4-33.9 52.3-24.6m85.2 17.3a713 713 0 0 1 25.3 2.5c1.4 1-19.7 108.2-21.8 110.6-.9 1.2-58.5-8.6-60.2-10.1-.4-.4-.3-2.2.2-4.1 1.3-4.3 6.5-27.2 7.4-32.2.5-2.7 1.4-4.1 3.3-5 3.8-1.9 4.6-5.1 2.1-8.3l-2.1-2.7 4.2-25.1c2.4-13.9 4.5-26 4.8-27.1.4-1.6 1.2-1.8 6.2-1.3zm-55.1 82.6-3.6 15.5a16 16 0 0 1-1.8 5.8c-1.3 0-3.1-7.3-4-16.7-.5-5.4-1.2-10.7-1.5-11.6-.6-1.3.2-1.7 4.7-2l6.9-.5c1.5-.2 1.4.9-.7 9.5"/><path d="M83.3 35.5c-1.3.9-2.3 2.3-2.3 3.2 0 1.5.2 1.4 1.8 0 1-1 2.9-1.7 4.1-1.7q2.2 0 1.9-1.3c-.7-1.8-3-1.9-5.5-.2m25.4-.8q-.7.6-.7 1.6t.7.4c.3-.4 1.7 0 3 .8 2 1.4 2.3 1.4 2.3.1q-.2-1.5-1.9-2.6c-2.3-1.2-2.6-1.2-3.4-.3M85.3 46.6c-1.9 3-.8 7.7 2 8.2 2.2.4 4.2-3.8 3.3-7.1-.9-3.6-3.3-4.1-5.3-1.1m22.9-1.4c-1.7 1.7-1.5 6.3.4 7.9 1.4 1.1 1.8 1 3-.6.8-1 1.4-2.8 1.4-4 0-2-1.7-4.5-3-4.5q-.6 0-1.8 1.2m-4.3 13.9c-1.5 2.2-1.8 2.3-4.3 1-3.1-1.7-4.9-.5-2.2 1.5 4 2.8 9.2.8 8.4-3.2-.3-1.5-.6-1.4-1.9.7m-29.3 4.4q-.4 1.3.4 1.5c.5 0 1.6 1.3 2.5 3 1.6 3.1 6.8 6.3 12.2 7.4 3.7.8 10.6-.8 12.3-2.9 1.9-2.3.5-2.9-2.4-1-2 1.3-4 1.6-8.2 1.3q-9.3-.7-12.4-7.6c-1.6-3.4-3.4-4.1-4.4-1.7M156 45.9c0 2.3 2.1 6.1 3.3 6.1 1.7 0 5.7-4.2 5.7-6q-.2-1.2-2.9 1.4l-3 2.9-.7-2.7c-.6-2.4-2.4-3.7-2.4-1.7m11 2.1q0 .9.5 1l14.7 1.6c12.8 1.4 16.1 1.4 14.6-.1-.5-.6-23.6-3.5-27.5-3.5q-2.1 0-2.3 1m-12.9 18c1.3 3.7 2.8 3.8 5.9.5 2.8-3 1.9-4.6-1.1-1.9-1.9 1.7-2.1 1.8-3 .1-1.6-2.8-2.9-1.9-1.8 1.3m10.5-.1c.6.6 6.4 1.8 12.9 2.6 13.8 1.7 16.5 1.8 16.5.6 0-.8-8.5-2.1-24-3.7-4.9-.5-6.2-.4-5.4.5m-14.6 15c0 2.7 2.1 6.1 3.8 6.1 2.1 0 5.2-3 5.2-5q0-1.3-2.3.8c-3 2.8-3.3 2.8-4.1-.3-.6-2.4-2.6-3.6-2.6-1.6m12 3.1c0 1 1.8 1.4 17.4 3.5 10.3 1.4 12.8 1.4 11.3-.2a246 246 0 0 0-26.9-4.3q-1.7 0-1.8 1m-9.4 15.7-1.9 2.6-1.9-2.4-2-2.4.6 2.5.6 3.2q.2.8 1.8.8c2.4 0 5.5-3.4 5-5.3q-.2-1.7-2.2 1m4.4 1.3q0 .9.3 1l14.7 2.5c8.8 1.5 14.8 2.1 15.4 1.5 1.1-1.1-.1-1.4-16.7-4-14.9-2.3-13.7-2.3-13.7-1m-14 15.5c0 1.5 2.5 5.5 3.5 5.5 1.6 0 5-3.8 4.2-4.6q-.8-.6-2.3.7c-1.4 1.1-1.8 1.1-2.9-.4-1.1-1.6-2.5-2.3-2.5-1.2m10.5 2.5c-.7 1.2 1 1.6 15.9 4 11.6 1.9 14.9 2 13.4.5-.2-.3-5.6-1.4-11.9-2.5l-14.1-2.5c-1.5-.2-3 0-3.3.5"/></svg>