<svg xmlns="http://www.w3.org/2000/svg" fill="currentColor" aria-label="person waiting for lorry" viewBox="0 0 239 207"><path d="M54.5 7.4c-1.1.7-3.5 1.7-5.2 2-1.9.5-4.1 1.9-5.3 3.5a9 9 0 0 1-5 3.4 6 6 0 0 0-4.2 3.2c-.6 1.4-1.5 2.5-1.9 2.5-1.8 0-4.1 6.5-4 11.6 0 4.2-.5 5.9-2.3 8.1a39 39 0 0 0-3.5 5c-1.3 2.6-1.4 9.2-.1 11.3q1 1.3-2.1 6.6C17.7 70.2 17.1 76 19.5 78c.8.7 1.5 2.3 1.5 3.6s.9 3.3 2.1 4.5l2 2-4.1 4.5c-7.1 7.7-10.6 18.2-13.1 39.4-1.7 14.4-1.8 52.5-.2 54.1.8.8 1.3 3.8 1.3 7.1 0 4.5.3 5.8 1.5 5.8s1.5-1.3 1.5-5.3v-5.2h8.3l8.2.1 1.2 4.8c.7 2.7 1.6 5.3 2.1 5.8 1.9 1.9 2.3-1.2.8-6.9-.8-3.1-1.4-5.9-1.2-6.1s3 .1 6.2.7c12.5 2.4 38.2.8 47.6-2.8 2.6-1 2.8-.8 3.3 2.2.3 1.8.6 5.2.7 7.6.2 2.6.8 4.6 1.6 4.9 1.1.3 1.3-1.4 1.2-8.4-.2-4.9.1-9.8.5-10.8s.3-8.2-.3-16A86 86 0 0 1 94 132a60 60 0 0 0 .1-20.7l-.9-3.2 12.2-5.9c6.8-3.3 14.8-7.6 18-9.6C141.6 81 147 68.8 140.1 54.5c-4.4-9.3-18.8-26.4-21-25-.6.3-2.6-.5-4.4-1.9A30 30 0 0 0 96.3 21c-5.9 0-6.2-.1-8.2-3.5A18 18 0 0 0 74.5 10c-1.7 0-4.8-.9-7-2-4.6-2.3-10.2-2.6-13-.6m25.8 17.3q.6.6-1.2 2C77.9 27.5 77 29 77 30c0 2.1 4.5 4.9 8.2 5.1q3.5 0-.1.8c-3.7 1-3.8 3.1-.3 3.1q2.8 0 3.6 1.6c1.2 3 .6 17.1-.9 22.2C84.1 74.1 74.9 79.6 65.4 76q-2.7-1-3.7-.1C60.6 77 65.8 80 69 80c1.6 0 2 .6 2 3.4 0 7.1-8.8 9.8-17.8 5.5-4.7-2.3-7.2-6-5.4-8.1a25 25 0 0 0 2.7-14.3c-.5-3.7-1-4.4-3.8-5.1-4.2-1.3-6.5-5.3-5.1-9.1 1-3 4.5-4.3 6.8-2.4q1.4 1 2.8.6c1.5-.6 6.8-11.3 6.8-13.7 0-.7 2.1-2.1 4.6-3.2q4.5-1.8 7.7-6.2c2.8-3.9 3.5-4.3 6.2-3.8zm24.9.9c2.5.8 6.3 3 8.4 4.8 3.6 3.1 3.8 3.5 2.6 5.8-1.8 3.4-7 6.4-8.5 4.9-.6-.6-2.7-1.1-4.6-1.2-4.1 0-14-3.8-10.4-3.8 1.2-.1 2.8-.7 3.5-1.5 1.2-1.2 1.8-1.2 3.9 0 5.6 3.1 6.6 1 1.1-2.5-3-1.9-4.5-2.2-8.7-1.8-2.7.3-6.1.8-7.5 1.2l-2.5.6 2.5-1.5c1.4-.8 4.4-1.8 6.8-2.2 2.3-.3 4.2-1 4.2-1.5 0-1.4-5.3-1.1-10 .6s-6.5 1.3-2.9-.6c6.1-3.2 15-3.8 22.1-1.3m-10.3 6.8c-.2.2-1.7.6-3.4 1q-3.2.8-1.5-.4c1.4-.9 5.9-1.5 4.9-.6m39.4 17.9c4.7 7.4 5.7 10.2 5.7 15.4 0 6.5-4.1 13.5-11.5 19.5A269 269 0 0 1 92.7 105q-.5-.2-.9-2.2t-1.5-2.6q-2.5-.6.2 9.8a46 46 0 0 1-.2 23.3c-1.8 8.1-2.2 21.7-1 35.4.8 9.1.8 9.2-1.7 10.8a79 79 0 0 1-36.1 5.1c-7.7-.3-15.3-.9-16.9-1.2l-2.9-.7.6-16.6a621 621 0 0 1 2.3-31.9c1.6-14.7 1.5-17.7-.6-15.6-1.6 1.6-4.1 25.7-4.7 46.2-.6 19.3-.6 19.4-3 20.3-2.7 1-10.7 1.2-14 .3-2.3-.6-2.3-.7-2.3-21.6q0-44 7.5-60.4c4.1-9.1 12-16.2 22.1-19.8 4-1.4 4-1.4 5.3 1.6.7 1.6 3.1 4.1 5.4 5.6 3.4 2.3 5.1 2.7 11 2.7 6.5 0 7-.2 9.8-3.3q3-3.2 2.9-6.6v-3.4l7.3-1.2c11.6-1.8 25.7-5.6 32.4-8.7 7.3-3.3 7.3-2.6.3-15.8l-4.7-9 4.2-2.6a13 13 0 0 0 5.5-6.1l1.3-3.5 5.4 5.9c2.9 3.2 6.8 8.2 8.6 11.1M102.4 43c1.7 0 3.3 2.3 7.9 10.9 3.1 5.9 5.7 11.1 5.7 11.3 0 1.9-17.9 7.9-27.6 9.4l-4.7.7 2.5-3.4C90.3 66.5 92 60 92 49.5v-9.4l4.1 1.4c2.3.8 5.1 1.5 6.3 1.5"/><path d="M65.9 39q-2 1.7-1.3 2c2.1 0 7.5-2.6 6.7-3.3q-1.7-1.8-5.4 1.3m17.5 5.4c-.8 2.2.3 4.9 1.9 4.3.6-.2 1.2-1.4 1.2-2.7 0-2.7-2.2-3.9-3.1-1.6M68.5 46c-.9 1.5.5 5.2 1.8 4.7 1.9-.6 2.1-5.7.3-5.7-.8 0-1.8.5-2.1 1M79 48c0 .6.7 2.5 1.6 4.2 1.6 3 1.5 3.2-.7 4.9L77.5 59h2.6c1.5 0 3.2-.7 3.9-1.6 1.1-1.3 1-2.3-.8-6-2-4.1-4.2-5.8-4.2-3.4m-9 16.5c0 2.1 4.3 3.9 7.4 3.1 3.7-.9 3.4-3.4-.3-2.8-1.6.2-3.8-.1-5-.7-1.7-1-2.1-.9-2.1.4m92.9 7.5c-2.6.4-5.5 1.3-6.5 1.8-2.9 1.6-7 6.2-9.7 11.2-1.5 2.7-3.4 4.7-4.8 5-3.4.8-4.9 4.5-4.9 12.4 0 5.1.4 7.2 1.6 8 1.3 1 1.4 2.3.5 9.1a136 136 0 0 0-1.3 30q.7 3.1 4 4c1.8.5 3.2 1.3 3.2 1.8s1.1 1.9 2.5 3.2a9.6 9.6 0 0 0 13.8-.5l2.6-3h15.5c12.4 0 15.6.3 15.6 1.3 0 2.8 3.6 4.7 8.6 4.7 6 0 6.9-.6 8.8-5.2 1.2-2.8 2.3-3.7 5.5-4.6 3.7-.9 4.2-.8 5.6 1.4a5 5 0 0 0 4.5 2.4c3 0 5-1.8 3.2-2.9-2.8-1.7-4.6-16.1-2.3-17.6.6-.3.7 1.7.4 4.9-.6 5.5.9 11.6 2.8 11.6 1.2 0 1.1-2.7-.1-3.5-1.4-.9-1.2-8.1.2-10.5q3.2-4.5-7.4-4.1c-7.8.2-6.8-1.6 1.1-2.1s8.1-2.8.3-2.8c-5.2 0-6-.2-5.6-1.8.3-.9.1-12.4-.4-25.5-1.1-27.4-.9-26.9-10.1-28.7-6.2-1.1-40.3-1.2-47.2 0m47.6 2.8c6.4 1.2 6.7 2.5 6.8 31.7a252 252 0 0 1-.5 26c-.3.4-1.6-.3-2.7-1.4-2.5-2.5-3.9-2.6-6.9-.5q-4.8 3.2-5.8 13.1c-.4 3.4-1.3 6.3-2.2 7-1.7 1.4-32.8 1.7-49.7.4l-9-.6-.3-6.3c-.2-3.8.1-6.2.8-6.2q.9 0 1 1c0 .5.9 1 1.9 1 1.9 0 3.5 2.5 2.6 4-.2.4-1.6.5-3 .2-2.7-.5-3.5 1.2-.9 2.2q3 1.2 5.2-.2c1.9-1.3-.5-6.9-3.6-8.5-2.6-1.2-2.7-1.7-3-9.5-.2-4.8.1-8.2.7-8.2 2 0 4.9 5.1 5.5 9.8 1.2 9.1 1.4 9.2 19.5 9.2 12.1 0 16.1-.3 17-1.4.6-.7 1.6-4 2.2-7.2s2.3-7.4 3.6-9.2c2.8-3.7 1.7-4.3-1.6-.8a26 26 0 0 0-4.1 9.3l-1.7 6.8-15.6.3-15.5.2-1.5-6.5c-1.7-7.3-4-11.5-6.2-11.5-.8 0-1.5-.9-1.5-1.9 0-1.8.3-1.9 2.9-1 4.6 1.6 46.4.8 48.4-1 2.3-1.9 2.1-3.4-.2-2.1-1.2.6-11.4 1-26 1H143v-2.4c0-3.2 3.7-21.7 4.5-22.5.4-.3 11.7-.6 25.1-.6 18.6 0 24.4-.3 24.4-1.2 0-2.2-4.6-2.6-26.5-2.1l-21.4.4 1.7-3q3.6-6.2 11.8-7.5c6.1-1.1 42.4-1.2 47.9-.3m-68 23.3c-1.3 9.6-2.3 11-2.4 3.3-.1-3.9.2-7.4.6-7.7q2.7-2.7 1.8 4.4m70.7 36.1q-.2 1.7.7 1.8c.6 0 1.1 2.6 1.3 5.7.4 7.6 2.3 6.7 2.2-1l-.1-5.7h5c4.1 0 4.8.3 4.3 1.6-.3.9-.6 3.5-.6 5.9 0 4.7.7 4.2-8.8 6-2.6.5-2.8.4-3-3.2-.4-6.7-1.3-9.2-4-11.4l-2.7-2.1 3 .4q3.1.3 2.7 2m-2.8 3.6c2.2 8 1.5 16.3-1.6 19.4q-3.9 3.6-5.4-4c-.8-4 .9-14.7 2.6-16.7 1.4-1.7 3.8-.9 4.4 1.3m17.6 13.3q-.2.8-1.5.9c-1.5 0-2-1.2-.9-2.3.8-.8 2.4.1 2.4 1.4m-26.9 6.8c-.8.2-2.1-.5-2.8-1.5-1.2-1.7-1.1-2 .9-2.5q2.3-.7 2.9 1.5.5 2-1 2.5m-48.8-1.9c.6 2.2-1.2 2.7-3.1.8q-2.6-2.7.7-2.8c1 0 2.1.9 2.4 2m7.5-.3q-.3 1.8-2.8 1.8-2.4 0-2.8-1.8c-.3-1.3.3-1.7 2.8-1.7s3.1.4 2.8 1.7"/><path d="M206 141.5c-2 2.4-2.3 8.8-.6 11 1.6 2 1.6 2 3.1.1a8 8 0 0 0 1.4-4q0-3-.6-.1c-1 4.2-2.3 3.8-2.3-.6 0-2.5.5-5 1.1-5.6q1-1 .1-1.7c-.5-.3-1.5.1-2.2.9m-141.7 57q-.4 1.5 0 2.1c.9.9 2.7-.6 2.7-2.2 0-1.9-1.9-1.8-2.7.1"/></svg>