<svg xmlns="http://www.w3.org/2000/svg" fill="currentColor" aria-label="A beaker" viewBox="-34.0 -0.0 293.0 293.0"><g transform="translate(0.000000,293.000000) scale(0.100000,-0.100000)"><path d="M1030 2740 c-140 -4 -256 -7 -258 -8 -2 -1 -16 -17 -33 -34 -52 -58
-36 -145 35 -185 16 -9 18 -29 17 -236 l0 -227 -86 -202 c-48 -112 -95 -223
-105 -248 -10 -25 -31 -76 -48 -115 -17 -38 -43 -101 -57 -140 -15 -38 -54
-133 -87 -210 -32 -77 -67 -160 -78 -185 -144 -351 -158 -400 -141 -481 26
-122 81 -191 190 -242 54 -26 84 -33 161 -37 131 -9 919 -9 1115 -1 143 6 166
10 215 33 122 57 190 151 198 273 3 43 -1 88 -8 111 -11 36 -171 435 -240 599
-16 39 -52 126 -80 195 -28 69 -55 134 -60 145 -5 11 -29 70 -54 130 -51 127
-108 261 -137 323 -17 38 -19 65 -20 272 l0 230 40 38 c35 33 41 45 41 80 0
43 -4 49 -65 100 -22 18 -40 22 -93 23 -37 0 -76 1 -87 2 -11 1 -135 0 -275
-3z m353 -108 c43 -2 57 -6 57 -17 0 -8 -3 -15 -7 -16 -5 0 -26 -2 -48 -4 -22
-2 -93 -6 -159 -10 -110 -6 -241 -26 -253 -39 -14 -13 23 -36 75 -46 112 -21
112 -22 62 -34 -40 -11 -45 -15 -46 -41 -1 -36 12 -55 37 -55 11 0 19 -4 19
-10 0 -5 -11 -10 -25 -10 -35 0 -31 -23 5 -37 40 -15 40 -43 1 -43 -17 0 -33
-5 -36 -10 -11 -17 4 -46 30 -60 30 -16 32 -30 5 -30 -27 0 -25 -24 3 -38 17
-8 18 -11 5 -11 -28 -1 -31 -20 -4 -33 32 -14 34 -30 4 -28 -13 1 -29 2 -35 1
-24 -2 -13 -42 21 -77 29 -29 35 -46 45 -108 6 -40 14 -81 17 -92 7 -19 7 -19
-14 0 -20 17 -22 17 -28 2 -3 -9 -3 -24 2 -33 4 -10 9 -28 10 -40 2 -18 -2
-23 -22 -23 -35 0 -30 -15 14 -40 34 -21 43 -22 109 -12 44 6 88 6 110 1 21
-5 57 -9 80 -9 36 0 41 3 36 18 -3 9 -14 26 -23 37 -10 11 -20 39 -24 62 -3
24 -12 57 -20 75 -8 18 -22 52 -32 76 -16 40 -45 76 -31 38 4 -10 3 -15 -3
-11 -6 3 -10 16 -10 29 0 12 -4 26 -10 32 -6 6 -4 42 5 99 7 50 16 158 20 240
4 83 9 152 11 154 12 13 16 -28 21 -226 6 -241 5 -237 88 -423 62 -138 121
-279 130 -310 6 -22 62 -159 155 -385 250 -603 251 -607 206 -699 -28 -58 -77
-102 -129 -117 -63 -18 -248 -24 -767 -24 -486 1 -529 2 -579 19 -106 36 -185
149 -166 237 4 19 38 111 77 204 185 453 247 603 297 720 22 50 51 122 66 160
14 39 35 88 45 110 10 22 41 94 68 160 l49 120 -2 261 c-1 144 -5 266 -9 273
-4 6 -23 18 -42 26 -36 15 -43 29 -20 42 13 7 395 10 559 5z m-53 -912 c0 -13
-1 -13 -10 0 -5 8 -10 22 -10 30 0 13 1 13 10 0 5 -8 10 -22 10 -30z m-859
-533 c-10 -9 -11 -8 -5 6 3 10 9 15 12 12 3 -3 0 -11 -7 -18z M953 1968 c-5
-7 -24 -49 -42 -93 -19 -44 -44 -103 -56 -131 -13 -29 -26 -67 -30 -84 -7 -32
-7 -33 21 -26 16 4 34 13 40 19 14 15 104 263 104 287 0 25 -25 44 -37 28z
m-63 -268 c-6 -11 -16 -20 -22 -20 -6 0 -3 9 7 20 10 11 20 20 22 20 2 0 -1
-9 -7 -20z M1110 1835 c0 -8 4 -15 10 -15 5 0 7 7 4 15 -4 8 -8 15 -10 15 -2
0 -4 -7 -4 -15z M964 1573 c-129 -3 -185 -7 -191 -16 -5 -6 -20 -41 -33 -77
-12 -36 -33 -87 -47 -113 -13 -27 -46 -101 -72 -165 -26 -64 -80 -191 -118
-282 -148 -348 -161 -396 -129 -458 18 -35 55 -68 86 -77 23 -7 24 -6 11 9
-13 16 -12 16 13 5 17 -8 22 -15 15 -20 -34 -21 124 -28 646 -30 560 -1 627 4
660 48 6 8 19 15 30 17 51 8 81 118 51 190 -8 20 -20 35 -25 32 -11 -7 -35 59
-33 90 2 34 -179 503 -278 719 -5 11 -18 42 -29 70 -13 35 -25 52 -42 56 -24
7 -164 7 -515 2z m-60 -123 c-3 -8 -8 -28 -11 -45 -3 -16 -16 -52 -28 -80 -34
-78 -106 -301 -109 -338 -4 -48 -37 -187 -52 -224 -8 -17 -14 -46 -15 -65 l-1
-33 -10 28 c-19 52 -44 21 -27 -35 5 -18 9 -34 9 -35 0 -1 -6 0 -13 3 -21 8
-40 -22 -35 -55 3 -21 1 -28 -9 -24 -23 9 -14 -33 13 -61 l27 -26 -34 6 c-19
4 -48 15 -66 26 -46 28 -51 66 -18 153 15 39 48 131 74 205 27 74 62 171 78
215 17 44 43 118 58 165 16 47 36 108 46 135 10 28 21 62 25 78 6 26 9 27 55
25 39 -2 48 -6 43 -18z m476 -125 c6 -8 9 -18 6 -23 -7 -12 -233 -14 -241 -2
-4 6 -4 17 -1 25 8 22 218 22 236 0z m-750 -214 c-9 -31 -29 -71 -30 -59 0 4
4 17 9 30 5 13 12 31 15 41 9 29 15 19 6 -12z m798 -40 c3 -20 -1 -21 -70 -23
-171 -5 -245 7 -207 35 11 8 60 12 145 11 124 -1 129 -2 132 -23z m-837 -54
c-10 -9 -11 -8 -5 6 3 10 9 15 12 12 3 -3 0 -11 -7 -18z m883 -184 c4 -9 1
-20 -6 -25 -7 -4 -82 -8 -166 -8 -131 0 -154 2 -159 16 -11 28 18 34 173 34
133 0 153 -2 158 -17z m246 -144 c0 -6 -4 -7 -10 -4 -5 3 -10 11 -10 16 0 6 5
7 10 4 6 -3 10 -11 10 -16z m-1070 -97 c0 -15 -2 -15 -10 -2 -13 20 -13 33 0
25 6 -3 10 -14 10 -23z m870 -12 c0 -10 -4 -21 -9 -24 -12 -8 -339 -16 -357
-9 -17 6 -19 39 -1 46 6 3 92 6 190 6 167 0 177 -1 177 -19z m200 -14 c0 -3
-4 -8 -10 -11 -5 -3 -10 -1 -10 4 0 6 5 11 10 11 6 0 10 -2 10 -4z M677 786
c-4 -10 -5 -21 -2 -24 9 -9 17 6 13 25 -3 17 -4 17 -11 -1z"/></g></svg>